<svg version="1.2" xmlns="http://www.w3.org/2000/svg" viewBox="0 0 960 900" width="960" height="900">
	<title>43294-ai</title>
	<style>
		.s0 { fill: #fbf8f8 } 
		.s1 { fill: #ffffff } 
		.s2 { fill: #fefefe } 
		.s3 { fill: #fdfafa } 
		.s4 { fill: #fdfdfd } 
		.s5 { fill: #f7f7f7 } 
		.s6 { fill: #fbfbfb } 
		.s7 { fill: #fcf7f7 } 
		.s8 { fill: #fdfcfc } 
		.s9 { fill: #faf7f7 } 
		.s10 { fill: #faf8f8 } 
		.s11 { fill: #f9f7f7 } 
	</style>
	<g id="laurel wreath">
		<g id="paddy">
			<path id="&lt;Path&gt;" class="s0" d="m585.8 607.5c-7.9 0.5-16-0.6-23.5-3.8-22.8-9.8-38.2-36.1-36.9-64.4 0.6-13.9 5-27.4 13.1-37.9 8.2-10.6 20-17.2 31.8-20.9 0.8-0.3 0.3 0.4-0.6 0.6-2.2 0.7-4.4 1.7-6.6 2.6-12.1 5.3-23 15.1-29.5 28.2-6.6 13.5-8.6 29.8-5.5 44.8 6.4 30.6 30.7 51 57.7 49.1z"/>
			<g id="&lt;Group&gt;">
				<g id="&lt;Group&gt;">
					<g id="&lt;Group&gt;">
						<path id="&lt;Path&gt;" class="s1" d="m559.1 612.7q0.8-0.4 2-1 1.2-0.5 2.7-1c1-0.4 2.1-0.7 3.3-1q1-0.3 1.9-0.5 1-0.3 2.1-0.5c2.8-0.5 6.1-1 9.8-1.3 0.3 1.6-0.9 3.1-2.9 4.3-1 0.6-2.3 1.2-3.7 1.6-1.3 0.4-2.8 0.8-4.4 1-1.5 0.2-3 0.3-4.5 0.3-1.5 0-2.9-0.1-4.1-0.3-1.1-0.1-2.1-0.3-2.8-0.4-0.7-0.1-1.1-0.2-1.1-0.2 0 0 0.6-0.4 1.7-1z"/>
					</g>
					<g id="&lt;Group&gt;">
						<path id="&lt;Path&gt;" class="s1" d="m546.2 604.8c1.1-0.3 2.7-0.5 4.7-0.7q0.8 0 1.6-0.1 0.8 0 1.7 0c1.2 0 2.5 0.1 3.9 0.2 2.7 0.2 5.8 0.6 9.3 1.4 0 0.7-0.4 1.4-1 1.9-0.6 0.5-1.5 0.9-2.5 1.3-1.1 0.3-2.4 0.4-3.7 0.5q-1 0-2.1-0.1-1.1 0-2.2-0.2-1.1-0.2-2.1-0.4-1.1-0.2-2.1-0.5c-1.4-0.3-2.6-0.8-3.7-1.2-1.1-0.4-1.9-0.9-2.6-1.1-0.6-0.3-0.9-0.5-0.9-0.5 0 0 0.6-0.2 1.7-0.5z"/>
					</g>
					<g id="&lt;Group&gt;">
						<path id="&lt;Path&gt;" class="s1" d="m535.3 593.8q0.8 0 1.9 0.2 1.2 0.1 2.6 0.3c1.9 0.4 4.1 1 6.6 1.9 2.5 0.9 5.2 2.1 8.3 3.7q-0.3 1.1-1.3 1.6c-0.7 0.3-1.6 0.4-2.6 0.4-1.1 0-2.2-0.2-3.5-0.5-0.6-0.1-1.3-0.3-1.9-0.5-0.7-0.3-1.3-0.5-2-0.8-1.2-0.6-2.5-1.2-3.7-1.9-1.2-0.7-2.2-1.4-3.1-2-1-0.7-1.7-1.3-2.2-1.7-0.5-0.4-0.8-0.6-0.8-0.6 0 0 0.6-0.1 1.7-0.1z"/>
					</g>
					<g id="&lt;Group&gt;">
						<path id="&lt;Path&gt;" class="s1" d="m526.9 580.3c0.9 0.3 2.4 0.8 4 1.6 0.8 0.4 1.7 0.9 2.7 1.5 0.9 0.5 2 1.1 3 1.9 2.1 1.4 4.4 3.3 6.9 5.6-0.6 1.2-2 1.3-3.9 0.8-1-0.3-2-0.8-3.2-1.4-1-0.6-2.1-1.3-3.2-2.1-1.1-0.9-2.2-1.8-3.1-2.7q-0.7-0.7-1.4-1.4-0.6-0.7-1.1-1.3c-0.7-0.8-1.3-1.5-1.7-2-0.4-0.5-0.6-0.8-0.6-0.8 0 0 0.6 0 1.6 0.3z"/>
					</g>
					<g id="&lt;Group&gt;">
						<path id="&lt;Path&gt;" class="s1" d="m520.3 564.5q0.4 0.2 1 0.6c0.9 0.5 2 1.3 3.4 2.4q1.1 0.9 2.2 2 1.2 1.1 2.4 2.6c1.7 1.8 3.4 4.1 5.3 6.9-0.8 0.9-2.2 0.7-3.8-0.3-0.8-0.5-1.7-1.2-2.6-2-0.9-0.9-1.7-1.9-2.6-2.9-0.8-1.1-1.6-2.1-2.3-3.2-0.7-1.1-1.3-2.1-1.8-3.1-0.5-0.9-0.9-1.7-1.1-2.3q-0.3-0.4-0.3-0.6-0.1-0.2-0.1-0.2 0 0 0.3 0.1z"/>
					</g>
					<g id="&lt;Group&gt;">
						<path id="&lt;Path&gt;" class="s1" d="m518.9 548.9q0.6 0.5 1.2 1.2 0.7 0.8 1.5 1.8c1 1.4 2.2 3.2 3.3 5.3 0.6 1.1 1.2 2.3 1.8 3.5 0.3 0.7 0.5 1.4 0.8 2q0.5 1.1 0.9 2.2c-0.9 0.7-2.1 0.1-3.4-1.2-1.3-1.4-2.7-3.5-3.8-5.8-0.6-1.2-1-2.4-1.5-3.6-0.4-1.1-0.7-2.2-1-3.2-0.4-0.9-0.5-1.8-0.7-2.3-0.1-0.6-0.2-0.9-0.2-0.9 0 0 0.5 0.3 1.1 1z"/>
					</g>
					<g id="&lt;Group&gt;">
						<path id="&lt;Path&gt;" class="s1" d="m519.1 531.7q0.3 0.3 0.7 0.8c0.5 0.8 1.1 2 1.8 3.5 1.4 3.1 2.9 7.4 3.7 13.5-0.9 0.4-1.9-0.5-2.8-2-0.5-0.8-0.9-1.8-1.3-2.8q-0.3-0.8-0.6-1.7-0.2-0.8-0.4-1.7-0.2-0.9-0.4-1.8-0.2-0.9-0.3-1.8c-0.2-1.1-0.3-2.2-0.4-3.2-0.1-0.9-0.1-1.7-0.2-2.2 0-0.6 0-0.9 0-0.9q0 0 0.2 0.3z"/>
					</g>
					<g id="&lt;Group&gt;">
						<path id="&lt;Path&gt;" class="s1" d="m523.7 516.9q0.5 1.3 1.1 3.6 0.3 1.2 0.5 2.6 0.2 1.4 0.3 3c0.1 1.1 0.2 2.3 0.1 3.6q0.1 1.9-0.1 4-0.7 0.1-1.2-0.6-0.6-0.7-1-2c-0.5-1.6-0.8-3.9-0.9-6.2 0-1.1 0-2.3 0-3.4 0.1-1 0.2-2 0.3-2.9 0.2-1.8 0.4-2.9 0.4-2.9 0 0 0.2 0.4 0.5 1.2z"/>
					</g>
					<g id="&lt;Group&gt;">
						<path id="&lt;Path&gt;" class="s1" d="m530.6 502.9c0.2 0.8 0.3 2 0.4 3.5 0 2.9-0.4 7-1.8 12.1-0.8-0.2-1.3-1.3-1.5-2.9-0.1-0.8-0.1-1.8 0-2.8 0.1-1 0.2-2 0.4-3 0.1-1.1 0.4-2.1 0.6-3.1 0.3-0.9 0.5-1.8 0.8-2.6 0.2-0.8 0.4-1.4 0.6-1.8 0.2-0.4 0.3-0.7 0.3-0.7 0 0 0.1 0.5 0.2 1.3z"/>
					</g>
					<g id="&lt;Group&gt;">
						<path id="&lt;Path&gt;" class="s1" d="m540 491.1c0 0.7-0.1 1.8-0.3 3.2-0.5 2.7-1.6 6.2-3.8 10.3-0.8-0.3-1-1.5-0.8-2.9 0.1-0.8 0.2-1.6 0.5-2.5 0.2-0.8 0.6-1.7 0.9-2.6 0.7-1.8 1.6-3.5 2.3-4.7 0.3-0.6 0.7-1.1 0.9-1.5q0.3-0.5 0.3-0.5c0 0 0.1 0.4 0 1.2z"/>
					</g>
					<g id="&lt;Group&gt;">
						<path id="&lt;Path&gt;" class="s1" d="m550.6 484.8c-0.9 2.3-2.5 5.2-5.4 8.3-0.5-0.5-0.5-1.6-0.1-2.8 0.3-0.7 0.5-1.4 0.9-2.1q0.6-1 1.3-2.1c0.5-0.7 1-1.4 1.5-2 0.5-0.6 1-1.2 1.4-1.6 0.8-0.9 1.4-1.5 1.4-1.5 0 0-0.1 1.6-1 3.8z"/>
					</g>
					<g id="&lt;Group&gt;">
						<path id="&lt;Path&gt;" class="s1" d="m564.3 476.3q-0.4 0.9-1.3 2.2-0.5 0.7-1 1.4-0.7 0.8-1.4 1.5-0.8 0.8-1.7 1.6-1 0.8-2.1 1.5c-0.4-0.6-0.2-1.5 0.4-2.5 0.3-0.5 0.7-1.1 1.2-1.6q0.7-0.8 1.5-1.5c1.1-1 2.3-1.9 3.2-2.5 0.9-0.6 1.5-1 1.5-1 0 0-0.1 0.4-0.3 0.9z"/>
					</g>
				</g>
				<g id="&lt;Group&gt;">
					<g id="&lt;Group&gt;">
						<path id="&lt;Path&gt;" class="s1" d="m565 590.9c0 0 0.2 0.2 0.6 0.5q0.6 0.5 1.7 1.4 1 0.8 2.4 1.9c0.9 0.6 1.9 1.4 2.9 2.1 1 0.8 2.1 1.4 3.1 2.2 1 0.7 1.9 1.4 2.7 2.2 1.7 1.4 2.8 2.9 2.5 4.4-3.6-0.3-6.6-1.6-8.9-3.1q-0.8-0.6-1.5-1.3-0.8-0.6-1.3-1.3c-0.9-0.8-1.5-1.8-2-2.7-0.5-0.8-0.9-1.7-1.2-2.4q-0.5-1.2-0.7-2c-0.3-1.2-0.3-1.9-0.3-1.9z"/>
					</g>
					<g id="&lt;Group&gt;">
						<path id="&lt;Path&gt;" class="s1" d="m555.9 585.9c0 0 0.7 0.9 1.7 2.3 0.6 0.7 1.2 1.6 2 2.4q0.5 0.7 1.1 1.4 0.6 0.6 1.2 1.4 0.6 0.7 1.2 1.4 0.6 0.7 1.2 1.4c0.8 0.9 1.5 1.9 2.1 2.7 0.6 0.9 1.1 1.8 1.4 2.6 0.2 0.8 0.3 1.5 0 2.2-3.3-1.2-5.8-3.2-7.6-5.2-0.9-1.1-1.6-2.1-2.2-3.2q-0.4-0.7-0.7-1.5-0.3-0.7-0.6-1.4c-0.6-1.9-0.8-3.6-0.9-4.7 0-1.1 0.1-1.8 0.1-1.8z"/>
					</g>
					<g id="&lt;Group&gt;">
						<path id="&lt;Path&gt;" class="s1" d="m547.8 578.6c0 0 0.2 0.2 0.4 0.7 0.2 0.5 0.5 1.1 0.9 1.9 0.4 0.8 0.8 1.7 1.3 2.7 0.5 1 1.1 2.1 1.6 3.2 0.3 0.5 0.6 1 0.9 1.6q0.4 0.8 0.8 1.6c0.6 1.1 1.1 2.2 1.5 3.1 0.4 1 0.6 1.9 0.7 2.7 0.1 0.8 0 1.5-0.4 2.1-2.8-2.1-4.7-4.5-6-6.9-1.2-2.3-1.8-4.6-2-6.5q-0.2-1.5-0.2-2.6c0-0.7 0.1-1.4 0.2-1.9 0.2-1.1 0.3-1.7 0.3-1.7z"/>
					</g>
					<g id="&lt;Group&gt;">
						<path id="&lt;Path&gt;" class="s1" d="m541.4 569.3c0 0 0.1 0.3 0.2 0.7 0.1 0.5 0.3 1.2 0.5 2q0.1 0.6 0.3 1.4 0.2 0.7 0.4 1.5c0.3 1 0.6 2.1 0.9 3.3 0.3 1.1 0.7 2.3 0.9 3.4 0.4 1.1 0.6 2.3 0.8 3.3 0.3 2 0.3 3.6-0.7 4.5-2.1-2.7-3.4-5.4-4.1-7.9-0.3-1.3-0.6-2.4-0.7-3.5q-0.1-1.7 0-3.1c0.2-1.8 0.5-3.2 0.9-4.2 0.3-0.9 0.6-1.4 0.6-1.4z"/>
					</g>
					<g id="&lt;Group&gt;">
						<path id="&lt;Path&gt;" class="s1" d="m536.9 558.5q0 0 0 0.2 0 0.1 0 0.5 0.1 0.7 0.1 2c0 0.8 0.1 1.7 0.1 2.8 0.1 1 0.2 2.1 0.3 3.3 0.1 1.1 0.1 2.3 0.2 3.4 0 1.1 0 2.2 0 3.1-0.1 2-0.4 3.5-1.5 4-1.4-3-2-5.9-2.2-8.3-0.1-1.2-0.1-2.4 0-3.4q0.2-1.6 0.6-2.8c0.4-1.6 1.1-2.9 1.5-3.7q0.4-0.5 0.6-0.8 0.3-0.3 0.3-0.3z"/>
					</g>
					<g id="&lt;Group&gt;">
						<path id="&lt;Path&gt;" class="s1" d="m534.6 546.6c0 0-0.1 1-0.4 2.5q-0.2 1.2-0.4 2.7c-0.1 0.9-0.3 2-0.4 3.1-0.3 2.1-0.6 4.3-1.1 6-0.4 1.8-1 3.1-2.1 3.3q-0.2-1.2-0.4-2.3c-0.1-0.7-0.1-1.4-0.2-2.1-0.1-1.4 0-2.7 0.2-3.8 0.3-2.3 1-4.1 1.7-5.5q0.6-1.1 1.1-1.8 0.6-0.7 1-1.2c0.6-0.6 1-0.9 1-0.9z"/>
					</g>
					<g id="&lt;Group&gt;">
						<path id="&lt;Path&gt;" class="s2" d="m534.7 534.3c0 0-0.1 0.3-0.2 0.6q-0.2 0.6-0.6 1.7c-0.3 0.6-0.6 1.4-0.9 2.3q-0.2 0.6-0.5 1.3-0.2 0.7-0.4 1.4-0.6 1.4-1.1 2.8c-0.3 0.9-0.7 1.8-1.1 2.5-0.7 1.5-1.6 2.5-2.5 2.4 0-1.5 0-2.9 0.3-4.1q0.1-1 0.3-1.8c0.2-0.6 0.4-1.2 0.5-1.7 0.7-2 1.7-3.5 2.6-4.6 1-1.1 1.9-1.8 2.5-2.2q0.5-0.3 0.8-0.4 0.3-0.2 0.3-0.2z"/>
					</g>
					<g id="&lt;Group&gt;">
						<path id="&lt;Path&gt;" class="s1" d="m537.2 522.3c0 0-0.5 0.7-1.2 1.8q-0.5 0.9-1.2 2c-0.4 0.7-0.9 1.4-1.4 2.2-0.9 1.6-2 3.1-2.9 4.3-0.5 0.6-1 1-1.4 1.3-0.5 0.3-0.9 0.4-1.4 0.2 0.3-1.4 0.7-2.6 1.1-3.7q0.6-1.6 1.4-2.9 0.8-1.2 1.6-2.1 0.9-0.8 1.6-1.4c1.1-0.8 2-1.2 2.7-1.4 0.7-0.2 1.1-0.3 1.1-0.3z"/>
					</g>
					<g id="&lt;Group&gt;">
						<path id="&lt;Path&gt;" class="s1" d="m542 511.2c0 0-2.1 2.1-4.5 4.5q-0.9 0.9-1.8 1.7c-0.6 0.5-1.1 1-1.7 1.4-1.1 0.8-2.1 1.2-2.8 0.6 0.5-1.1 1.1-2.1 1.7-3q0.9-1.3 1.8-2.2c1.3-1.2 2.5-2 3.6-2.4 1.1-0.5 2-0.6 2.7-0.7 0.6 0 1 0.1 1 0.1z"/>
					</g>
					<g id="&lt;Group&gt;">
						<path id="&lt;Path&gt;" class="s1" d="m548.9 501.5q0 0-0.4 0.2-0.4 0.2-1.1 0.7c-0.9 0.5-2.1 1.3-3.4 2q-0.9 0.6-1.9 1.1c-0.6 0.4-1.2 0.7-1.8 0.9q-0.8 0.3-1.5 0.3c-0.5 0-0.8-0.1-1.1-0.5 2.7-3.6 5.7-4.8 7.8-5.1 1.1-0.1 1.9 0 2.5 0.1 0.6 0.1 0.9 0.3 0.9 0.3z"/>
					</g>
					<g id="&lt;Group&gt;">
						<path id="&lt;Path&gt;" class="s1" d="m557.7 493.7c0 0-0.6 0.2-1.6 0.5q-0.7 0.2-1.5 0.5c-0.6 0.2-1.3 0.3-1.9 0.5q-0.9 0.3-1.9 0.5c-0.6 0.1-1.2 0.3-1.8 0.3-1 0.1-1.9-0.1-2.2-0.8 3-2.5 5.9-2.8 7.8-2.6 2 0.3 3.1 1.1 3.1 1.1z"/>
					</g>
					<g id="&lt;Group&gt;">
						<path id="&lt;Path&gt;" class="s1" d="m567.8 488.5c0 0-0.6 0-1.5 0q-0.6 0-1.5 0c-0.5 0.1-1.1 0-1.7 0.1q-0.9 0-1.8-0.1c-0.6 0-1.1 0-1.6-0.1-1-0.2-1.7-0.6-1.9-1.3q1.2-0.5 2.3-0.8 1.1-0.2 2-0.2 1 0 1.8 0.2 0.8 0.2 1.4 0.4c0.8 0.4 1.4 0.8 1.8 1.2 0.5 0.3 0.7 0.6 0.7 0.6z"/>
					</g>
				</g>
				<g id="&lt;Group&gt;">
					<path id="&lt;Path&gt;" class="s3" d="m578.9 480.1c-0.6 0.1-1.4 0.3-2.2 0.5q-0.6 0.1-1.3 0.3-0.6 0.1-1.3 0.3-0.7 0.2-1.4 0.3-0.7 0.2-1.4 0.4-0.7 0.1-1.4 0.3-0.7 0.2-1.3 0.3c-0.9 0.2-1.8 0.4-2.5 0.5q-1.2 0.1-2.2 0 0.4-0.4 0.8-0.8 0.4-0.3 0.9-0.6c0.7-0.4 1.5-0.8 2.4-1.1 0.9-0.3 1.9-0.6 2.8-0.8q0.8-0.1 1.5-0.2 0.8-0.1 1.5-0.2 0.7 0 1.4-0.1 0.7 0 1.3 0.1c0.9 0 1.7 0 2.3 0.1 1.3 0.1 2.2 0.3 2.2 0.3 0 0-0.8 0.2-2.1 0.4z"/>
				</g>
			</g>
			<path id="&lt;Path&gt;" class="s1" d="m610.4 605.8c27 1.9 51.4-18.5 57.7-49.1 3.1-15 1.1-31.3-5.5-44.8-6.5-13.1-17.4-22.9-29.5-28.2-2.1-0.9-4.4-1.9-6.6-2.6-0.9-0.2-1.4-0.9-0.5-0.6 11.8 3.7 23.5 10.3 31.7 20.9 8.2 10.5 12.5 24 13.1 37.9 1.3 28.3-14.1 54.6-36.9 64.4-7.5 3.2-15.6 4.3-23.5 3.8z"/>
			<g id="&lt;Group&gt;">
				<g id="&lt;Group&gt;">
					<g id="&lt;Group&gt;">
						<path id="&lt;Path&gt;" class="s1" d="m638.8 613.7c0 0-0.4 0.1-1.1 0.2-0.6 0.1-1.6 0.3-2.8 0.4-1.2 0.2-2.6 0.3-4.1 0.3-1.4 0-3-0.1-4.5-0.3-1.5-0.2-3.1-0.6-4.4-1-1.4-0.4-2.7-1-3.7-1.6-2-1.2-3.2-2.7-2.9-4.3 3.8 0.3 7 0.8 9.8 1.3q1.1 0.2 2.1 0.5 1 0.2 1.9 0.5c1.2 0.3 2.3 0.6 3.3 1q1.6 0.5 2.7 1 1.2 0.6 2.1 1c1.1 0.6 1.6 1 1.6 1z"/>
					</g>
					<g id="&lt;Group&gt;">
						<path id="&lt;Path&gt;" class="s1" d="m651.7 605.3c0 0-0.3 0.2-0.9 0.5-0.6 0.2-1.5 0.7-2.6 1.1-1.1 0.4-2.3 0.9-3.7 1.2q-1 0.3-2 0.5-1.1 0.2-2.2 0.4-1.1 0.2-2.2 0.2-1 0.1-2.1 0.1c-1.3-0.1-2.6-0.2-3.6-0.5-1.1-0.4-2-0.8-2.6-1.3-0.6-0.5-1-1.2-1-1.9 3.5-0.8 6.6-1.2 9.3-1.4 1.4-0.1 2.7-0.2 3.9-0.2q0.9 0 1.7 0 0.8 0.1 1.6 0.1c2 0.2 3.6 0.4 4.7 0.7 1.1 0.3 1.7 0.5 1.7 0.5z"/>
					</g>
					<g id="&lt;Group&gt;">
						<path id="&lt;Path&gt;" class="s1" d="m662.6 593.9c0 0-0.3 0.2-0.8 0.6-0.5 0.4-1.2 1-2.1 1.7-1 0.6-2 1.3-3.2 2-1.2 0.7-2.4 1.3-3.7 1.9-0.7 0.3-1.3 0.5-2 0.8-0.6 0.2-1.3 0.4-1.9 0.5-1.3 0.3-2.4 0.5-3.5 0.5-1 0-1.9-0.1-2.6-0.4-0.6-0.4-1.1-0.9-1.3-1.6 3.1-1.6 5.9-2.8 8.4-3.7 2.4-0.9 4.7-1.5 6.5-1.9q1.4-0.2 2.6-0.3 1.1-0.2 1.9-0.2c1.1 0 1.7 0.1 1.7 0.1z"/>
					</g>
					<g id="&lt;Group&gt;">
						<path id="&lt;Path&gt;" class="s1" d="m670.9 580c0 0-0.2 0.3-0.6 0.8-0.4 0.5-1 1.2-1.7 2q-0.5 0.6-1.1 1.3-0.7 0.7-1.4 1.4c-0.9 0.9-2 1.8-3 2.7-1.1 0.8-2.3 1.5-3.3 2.1-1.1 0.6-2.2 1.1-3.1 1.4-2 0.5-3.4 0.4-4-0.8 2.5-2.3 4.8-4.2 6.9-5.6 1.1-0.8 2.1-1.4 3-1.9 1-0.6 1.9-1.1 2.7-1.5 1.7-0.8 3.1-1.3 4.1-1.6 0.9-0.3 1.5-0.3 1.5-0.3z"/>
					</g>
					<g id="&lt;Group&gt;">
						<path id="&lt;Path&gt;" class="s1" d="m676.3 564.4q0 0-0.1 0.2-0.1 0.2-0.3 0.6c-0.3 0.6-0.7 1.4-1.2 2.3-0.5 1-1.1 2-1.8 3.1-0.7 1.1-1.5 2.1-2.3 3.2-0.8 1-1.7 2-2.6 2.9-0.9 0.8-1.7 1.5-2.6 2-1.6 1-3 1.2-3.8 0.3 1.9-2.8 3.6-5.1 5.3-6.9q1.2-1.5 2.4-2.6 1.1-1.1 2.2-2c1.4-1.1 2.5-1.9 3.4-2.4q0.7-0.4 1-0.6 0.4-0.1 0.4-0.1z"/>
					</g>
					<g id="&lt;Group&gt;">
						<path id="&lt;Path&gt;" class="s1" d="m678.4 547.9c0 0-0.1 0.3-0.2 0.9-0.2 0.5-0.3 1.4-0.6 2.3-0.3 1-0.7 2.1-1.1 3.2-0.5 1.2-0.9 2.4-1.5 3.6-1.1 2.3-2.5 4.4-3.8 5.8-1.3 1.3-2.5 1.9-3.4 1.2q0.4-1.1 0.9-2.2c0.3-0.6 0.6-1.3 0.9-2 0.6-1.2 1.1-2.4 1.7-3.5 1.1-2.1 2.3-3.9 3.3-5.3 0.5-0.7 1-1.3 1.5-1.8q0.7-0.7 1.2-1.2c0.7-0.7 1.1-1 1.1-1z"/>
					</g>
					<g id="&lt;Group&gt;">
						<path id="&lt;Path&gt;" class="s1" d="m677.3 531.4c0 0 0 0.3 0 0.9-0.1 0.5-0.1 1.3-0.2 2.2 0 1-0.2 2.1-0.4 3.2q-0.1 0.9-0.3 1.8-0.2 0.9-0.4 1.8-0.2 0.9-0.4 1.7-0.3 0.9-0.6 1.7c-0.4 1-0.8 2-1.3 2.8-0.9 1.5-1.9 2.4-2.8 2 0.8-6.1 2.3-10.4 3.7-13.5 0.7-1.5 1.4-2.7 1.9-3.5q0.3-0.5 0.6-0.8 0.2-0.3 0.2-0.3z"/>
					</g>
					<g id="&lt;Group&gt;">
						<path id="&lt;Path&gt;" class="s1" d="m673 515.7c0 0 0.2 1.1 0.5 2.9 0 0.9 0.1 1.9 0.2 2.9 0.1 1.1 0 2.3 0 3.4-0.1 2.3-0.4 4.6-0.9 6.2q-0.4 1.3-1 2-0.5 0.7-1.2 0.6-0.1-2.1-0.1-4c0-1.3 0-2.5 0.1-3.6q0.1-1.6 0.4-3 0.1-1.4 0.4-2.6 0.6-2.3 1.1-3.6c0.3-0.8 0.5-1.2 0.5-1.2z"/>
					</g>
					<g id="&lt;Group&gt;">
						<path id="&lt;Path&gt;" class="s4" d="m665.8 501.6c0 0 0.1 0.3 0.3 0.7 0.2 0.4 0.4 1 0.6 1.8 0.3 0.8 0.6 1.7 0.8 2.6 0.2 1 0.5 2 0.7 3.1 0.1 1 0.3 2 0.3 3 0.1 1 0.1 2 0 2.8-0.1 1.6-0.6 2.7-1.5 2.9-1.4-5.1-1.8-9.2-1.7-12.1 0-1.5 0.2-2.7 0.3-3.5 0.1-0.8 0.2-1.3 0.2-1.3z"/>
					</g>
					<g id="&lt;Group&gt;">
						<path id="&lt;Path&gt;" class="s2" d="m656.2 489.9q0 0 0.3 0.5 0.4 0.6 0.9 1.5c0.8 1.2 1.6 2.9 2.3 4.7 0.4 0.9 0.7 1.8 0.9 2.6 0.3 0.9 0.4 1.7 0.5 2.5 0.2 1.4 0 2.6-0.7 2.9-2.3-4.1-3.4-7.6-3.9-10.3-0.2-1.4-0.3-2.5-0.3-3.2-0.1-0.8 0-1.2 0-1.2z"/>
					</g>
					<g id="&lt;Group&gt;">
						<path id="&lt;Path&gt;" class="s5" d="m644.6 481c0 0 0.6 0.6 1.4 1.5 0.5 0.4 0.9 1 1.4 1.6 0.5 0.6 1 1.3 1.5 2q0.7 1.1 1.3 2.1c0.4 0.7 0.7 1.4 0.9 2.1 0.4 1.2 0.4 2.3-0.1 2.8-2.9-3.1-4.5-6-5.4-8.3-0.9-2.2-1-3.8-1-3.8z"/>
					</g>
					<g id="&lt;Group&gt;">
						<path id="&lt;Path&gt;" class="s1" d="m631.6 475.4c0 0 0.6 0.4 1.6 1 0.9 0.6 2 1.5 3.1 2.5q0.8 0.7 1.6 1.5c0.4 0.5 0.8 1.1 1.1 1.6 0.6 1 0.9 1.9 0.5 2.5q-1.2-0.7-2.1-1.5-1-0.8-1.8-1.6-0.7-0.7-1.3-1.5-0.6-0.7-1.1-1.4-0.9-1.3-1.2-2.2c-0.3-0.5-0.4-0.9-0.4-0.9z"/>
					</g>
				</g>
				<g id="&lt;Group&gt;">
					<g id="&lt;Group&gt;">
						<path id="&lt;Path&gt;" class="s1" d="m630.9 592.8q-0.2 0.8-0.7 2c-0.3 0.7-0.7 1.6-1.2 2.4-0.5 0.9-1.1 1.9-1.9 2.7q-0.6 0.7-1.3 1.3-0.8 0.7-1.6 1.3c-2.3 1.5-5.2 2.8-8.9 3.1-0.3-1.5 0.8-3 2.5-4.4 0.8-0.8 1.7-1.5 2.7-2.2 1-0.8 2.1-1.4 3.1-2.2 1-0.7 2-1.5 2.9-2.1q1.4-1.1 2.4-1.9 1.1-0.9 1.7-1.4 0.6-0.5 0.6-0.5c0 0 0 0.7-0.3 1.9z"/>
					</g>
					<g id="&lt;Group&gt;">
						<path id="&lt;Path&gt;" class="s6" d="m640.4 587.7c-0.1 1.1-0.3 2.8-0.9 4.7q-0.2 0.7-0.6 1.4-0.3 0.8-0.7 1.5c-0.6 1.1-1.3 2.1-2.2 3.2-1.8 2-4.3 4-7.6 5.2-0.3-0.7-0.2-1.4 0.1-2.2 0.2-0.8 0.7-1.7 1.3-2.6 0.6-0.8 1.3-1.8 2.1-2.7q0.6-0.7 1.2-1.4 0.7-0.7 1.2-1.4 0.6-0.8 1.2-1.4 0.6-0.7 1.2-1.4c0.7-0.8 1.3-1.7 1.9-2.4 1.1-1.4 1.8-2.3 1.8-2.3 0 0 0 0.7 0 1.8z"/>
					</g>
					<g id="&lt;Group&gt;">
						<path id="&lt;Path&gt;" class="s6" d="m648.7 580.3c0.1 0.5 0.2 1.2 0.2 1.9q0 1.1-0.1 2.6c-0.3 1.9-0.9 4.2-2.1 6.5-1.3 2.4-3.2 4.8-6 6.9-0.4-0.6-0.5-1.3-0.4-2.1 0.1-0.8 0.4-1.7 0.8-2.7 0.4-0.9 0.8-2 1.4-3.1q0.4-0.8 0.8-1.6c0.3-0.6 0.6-1.1 0.9-1.6 0.5-1.1 1.1-2.2 1.6-3.2 0.5-1 1-1.9 1.3-2.7 0.4-0.8 0.7-1.4 0.9-1.9 0.3-0.5 0.4-0.7 0.4-0.7 0 0 0.2 0.6 0.3 1.7z"/>
					</g>
					<g id="&lt;Group&gt;">
						<path id="&lt;Path&gt;" class="s7" d="m655.5 570.7c0.3 1 0.7 2.4 0.8 4.2q0.1 1.4 0 3.1c-0.1 1.1-0.3 2.2-0.7 3.5-0.7 2.5-2 5.2-4.1 7.9-1-0.9-1-2.5-0.7-4.5 0.2-1 0.5-2.2 0.8-3.3 0.3-1.1 0.6-2.3 0.9-3.4 0.3-1.2 0.7-2.3 0.9-3.3q0.2-0.8 0.4-1.5 0.2-0.8 0.4-1.4c0.2-0.8 0.4-1.5 0.4-2 0.2-0.4 0.2-0.7 0.2-0.7 0 0 0.3 0.5 0.7 1.4z"/>
					</g>
					<g id="&lt;Group&gt;">
						<path id="&lt;Path&gt;" class="s8" d="m659.6 558.8q0.2 0.3 0.6 0.8c0.4 0.8 1.1 2.1 1.5 3.7q0.4 1.2 0.6 2.8c0.1 1 0.1 2.2 0.1 3.4-0.2 2.4-0.9 5.3-2.3 8.3-1-0.5-1.4-2-1.5-4 0-0.9 0-2 0.1-3.1 0-1.1 0.1-2.3 0.2-3.4 0-1.2 0.1-2.3 0.2-3.3 0-1.1 0.1-2 0.1-2.8q0.1-1.3 0.1-2 0-0.4 0-0.5 0-0.2 0-0.2 0 0 0.3 0.3z"/>
					</g>
					<g id="&lt;Group&gt;">
						<path id="&lt;Path&gt;" class="s9" d="m662.6 547.5q0.4 0.5 1 1.2 0.6 0.7 1.1 1.8c0.8 1.4 1.4 3.2 1.7 5.5 0.2 1.1 0.3 2.4 0.2 3.8 0 0.7-0.1 1.4-0.2 2.1q-0.2 1.1-0.4 2.3c-1-0.2-1.7-1.5-2.1-3.3-0.5-1.7-0.8-3.9-1.1-6-0.1-1.1-0.3-2.2-0.4-3.1q-0.2-1.5-0.4-2.7c-0.2-1.5-0.4-2.5-0.4-2.5 0 0 0.4 0.3 1 0.9z"/>
					</g>
					<g id="&lt;Group&gt;">
						<path id="&lt;Path&gt;" class="s10" d="m661.8 534.5q0.3 0.1 0.8 0.4c0.6 0.4 1.5 1.1 2.5 2.2 0.9 1.1 1.9 2.6 2.6 4.6 0.1 0.5 0.3 1.1 0.5 1.7q0.2 0.8 0.3 1.8c0.3 1.2 0.3 2.6 0.3 4.1-0.9 0.1-1.8-0.9-2.5-2.4-0.4-0.7-0.8-1.6-1.1-2.5q-0.5-1.4-1-2.8-0.3-0.7-0.5-1.4-0.3-0.7-0.5-1.3c-0.3-0.9-0.6-1.7-0.9-2.3q-0.3-1.1-0.5-1.7c-0.2-0.3-0.3-0.6-0.3-0.6q0 0 0.3 0.2z"/>
					</g>
					<g id="&lt;Group&gt;">
						<path id="&lt;Path&gt;" class="s3" d="m660.1 522.6c0.7 0.2 1.7 0.6 2.7 1.4q0.8 0.6 1.6 1.4 0.8 0.9 1.6 2.1c0.5 0.9 1 1.8 1.5 2.9 0.4 1.1 0.7 2.3 1 3.7-0.4 0.2-0.9 0.1-1.3-0.2-0.5-0.3-1-0.7-1.5-1.3-0.9-1.2-1.9-2.7-2.9-4.3-0.5-0.8-0.9-1.5-1.4-2.2q-0.7-1.1-1.2-2c-0.7-1.1-1.2-1.8-1.2-1.8 0 0 0.4 0.1 1.1 0.3z"/>
					</g>
					<g id="&lt;Group&gt;">
						<path id="&lt;Path&gt;" class="s11" d="m655.2 511.1c0.7 0.1 1.6 0.2 2.7 0.7 1.1 0.4 2.3 1.2 3.6 2.4q0.9 0.9 1.8 2.2c0.6 0.9 1.2 1.9 1.7 3-0.7 0.6-1.7 0.2-2.8-0.6-0.5-0.4-1.1-0.9-1.7-1.4q-0.9-0.8-1.7-1.7c-2.5-2.4-4.6-4.5-4.6-4.5 0 0 0.4-0.1 1-0.1z"/>
					</g>
					<g id="&lt;Group&gt;">
						<path id="&lt;Path&gt;" class="s1" d="m648.2 501.2c0.6-0.1 1.4-0.2 2.5-0.1 2.1 0.3 5.1 1.5 7.8 5.1-0.3 0.4-0.6 0.5-1.1 0.5q-0.6 0-1.5-0.3c-0.6-0.2-1.2-0.5-1.8-0.9q-1-0.5-1.9-1.1c-1.3-0.7-2.5-1.5-3.4-2q-0.7-0.5-1.1-0.7-0.4-0.2-0.4-0.2c0 0 0.3-0.2 0.9-0.3z"/>
					</g>
					<g id="&lt;Group&gt;">
						<path id="&lt;Path&gt;" class="s1" d="m641.6 493.6c1.9-0.2 4.8 0.1 7.9 2.6-0.4 0.7-1.2 0.9-2.3 0.8-0.6 0-1.2-0.2-1.8-0.3q-0.9-0.2-1.9-0.5c-0.6-0.2-1.3-0.3-1.8-0.5q-0.9-0.3-1.6-0.5c-1-0.3-1.5-0.5-1.5-0.5 0 0 1-0.8 3-1.1z"/>
					</g>
					<g id="&lt;Group&gt;">
						<path id="&lt;Path&gt;" class="s1" d="m629.1 487.9c0.4-0.4 1-0.8 1.8-1.2q0.7-0.2 1.5-0.4 0.7-0.2 1.7-0.2 0.9 0 2 0.2 1.1 0.3 2.3 0.8c-0.2 0.7-0.9 1.1-1.9 1.3-0.5 0.1-1 0.1-1.6 0.1q-0.9 0.1-1.8 0.1c-0.6-0.1-1.2 0-1.7-0.1q-0.8 0-1.5 0c-0.9 0-1.4 0-1.4 0 0 0 0.2-0.3 0.6-0.6z"/>
					</g>
				</g>
				<g id="&lt;Group&gt;">
					<path id="&lt;Path&gt;" class="s1" d="m615.3 479.7c0 0 0.8-0.2 2.1-0.3 0.6-0.1 1.4-0.1 2.3-0.1q0.6-0.1 1.3-0.1 0.7 0.1 1.4 0.1 0.8 0.1 1.5 0.2 0.7 0.1 1.5 0.2c1 0.2 1.9 0.5 2.8 0.8 0.9 0.3 1.7 0.7 2.4 1.1q0.5 0.3 0.9 0.6 0.5 0.4 0.8 0.8-1 0.1-2.1 0c-0.8-0.1-1.7-0.3-2.6-0.5q-0.6-0.1-1.3-0.3-0.7-0.2-1.4-0.3-0.7-0.2-1.4-0.4-0.7-0.1-1.4-0.3-0.7-0.2-1.3-0.3-0.7-0.2-1.3-0.3c-0.8-0.2-1.5-0.4-2.2-0.5-1.2-0.2-2-0.4-2-0.4z"/>
				</g>
			</g>
		</g>
	</g>
</svg>